<svg xmlns="http://www.w3.org/2000/svg" xmlns:xlink="http://www.w3.org/1999/xlink" width="128" zoomAndPan="magnify" viewBox="-2 -4 128 128" height="128" preserveAspectRatio="xMidYMid meet" version="1.0"><defs><clipPath id="242a1cc3fc"><path d="M 0.421875 0 L 107 0 L 107 79 L 0.421875 79 Z M 0.421875 0 " clip-rule="nonzero"/></clipPath><clipPath id="aa0adadb9d"><path d="M 16 43 L 123 43 L 123 121.945312 L 16 121.945312 Z M 16 43 " clip-rule="nonzero"/></clipPath></defs><g clip-path="url(#242a1cc3fc)"><path fill="#1250f3" d="M 75.667969 46.855469 C 76.632812 47.808594 77.484375 48.851562 78.230469 49.980469 L 84.097656 58.886719 L 100.386719 42.632812 L 104.878906 38.152344 C 103.015625 34.671875 100.773438 31.460938 98.144531 28.511719 L 98.203125 28.457031 L 102.246094 24.421875 L 106.355469 20.324219 C 105.703125 19.609375 105.035156 18.914062 104.351562 18.234375 C 103.667969 17.550781 102.96875 16.886719 102.253906 16.238281 C 78.40625 -5.421875 41.320312 -4.742188 18.265625 18.234375 C 16.640625 19.847656 15.113281 21.550781 13.683594 23.339844 C 12.253906 25.128906 10.929688 26.992188 9.710938 28.933594 C 8.492188 30.871094 7.386719 32.871094 6.398438 34.933594 C 5.40625 36.996094 4.535156 39.109375 3.78125 41.269531 C 3.03125 43.433594 2.402344 45.628906 1.898438 47.859375 C 1.398438 50.09375 1.023438 52.347656 0.777344 54.621094 C 0.527344 56.894531 0.410156 59.175781 0.421875 61.464844 C 0.4375 63.75 0.578125 66.03125 0.847656 68.304688 C 1.042969 69.871094 1.285156 71.441406 1.609375 73 L 2.0625 75.285156 L 7.019531 70.339844 L 11.664062 65.707031 L 12.046875 65.328125 C 12.425781 69.921875 13.425781 74.375 15.046875 78.691406 L 46.972656 46.855469 C 47.441406 46.386719 47.933594 45.941406 48.449219 45.523438 C 48.964844 45.101562 49.496094 44.710938 50.050781 44.34375 C 50.601562 43.972656 51.171875 43.636719 51.757812 43.324219 C 52.34375 43.011719 52.945312 42.730469 53.558594 42.476562 C 54.171875 42.222656 54.796875 42 55.433594 41.808594 C 56.066406 41.617188 56.710938 41.457031 57.363281 41.328125 C 58.015625 41.199219 58.671875 41.101562 59.332031 41.035156 C 59.992188 40.972656 60.65625 40.9375 61.320312 40.9375 C 61.984375 40.9375 62.648438 40.972656 63.308594 41.035156 C 63.96875 41.101562 64.625 41.199219 65.277344 41.328125 C 65.929688 41.457031 66.574219 41.617188 67.207031 41.808594 C 67.84375 42 68.46875 42.222656 69.082031 42.476562 C 69.695312 42.730469 70.296875 43.011719 70.882812 43.324219 C 71.46875 43.636719 72.039062 43.972656 72.589844 44.34375 C 73.144531 44.710938 73.675781 45.101562 74.191406 45.523438 C 74.707031 45.941406 75.199219 46.386719 75.667969 46.855469 Z M 25.421875 43.808594 L 19.320312 49.898438 C 19.558594 49.011719 19.824219 48.136719 20.117188 47.269531 C 20.414062 46.402344 20.734375 45.546875 21.082031 44.699219 C 21.433594 43.851562 21.808594 43.015625 22.210938 42.191406 C 22.609375 41.367188 23.039062 40.558594 23.492188 39.761719 C 23.945312 38.964844 24.421875 38.183594 24.925781 37.417969 C 25.429688 36.652344 25.957031 35.902344 26.507812 35.171875 C 27.058594 34.4375 27.632812 33.722656 28.226562 33.027344 C 28.824219 32.328125 29.441406 31.652344 30.078125 30.996094 C 30.71875 30.335938 31.378906 29.699219 32.058594 29.082031 C 32.738281 28.46875 33.433594 27.875 34.152344 27.300781 C 34.871094 26.730469 35.605469 26.179688 36.355469 25.65625 C 37.109375 25.128906 37.875 24.628906 38.660156 24.152344 C 39.445312 23.675781 40.242188 23.222656 41.054688 22.796875 C 41.867188 22.371094 42.691406 21.96875 43.53125 21.59375 C 44.371094 21.21875 45.21875 20.871094 46.078125 20.550781 C 46.9375 20.230469 47.808594 19.9375 48.6875 19.671875 C 49.566406 19.40625 50.453125 19.167969 51.347656 18.957031 C 52.238281 18.746094 53.140625 18.566406 54.046875 18.414062 C 54.949219 18.261719 55.859375 18.136719 56.773438 18.039062 C 57.6875 17.945312 58.601562 17.878906 59.519531 17.839844 C 60.4375 17.800781 61.355469 17.792969 62.273438 17.8125 C 63.191406 17.832031 64.109375 17.882812 65.023438 17.960938 C 65.9375 18.039062 66.851562 18.144531 67.757812 18.28125 C 68.667969 18.417969 69.570312 18.582031 70.46875 18.773438 C 71.363281 18.964844 72.253906 19.1875 73.140625 19.433594 C 74.023438 19.683594 74.898438 19.960938 75.765625 20.265625 C 76.628906 20.570312 77.488281 20.898438 78.332031 21.257812 C 79.175781 21.617188 80.011719 22 80.832031 22.410156 C 81.652344 22.824219 82.457031 23.257812 83.25 23.71875 C 84.042969 24.183594 84.820312 24.667969 85.585938 25.179688 C 86.347656 25.691406 87.089844 26.226562 87.820312 26.78125 C 88.546875 27.339844 89.257812 27.921875 89.949219 28.523438 L 85.839844 32.621094 C 84.949219 31.859375 84.023438 31.144531 83.0625 30.46875 C 82.105469 29.796875 81.117188 29.167969 80.097656 28.585938 C 79.078125 28.003906 78.035156 27.46875 76.96875 26.984375 C 75.902344 26.5 74.8125 26.066406 73.703125 25.679688 C 72.597656 25.296875 71.472656 24.964844 70.332031 24.6875 C 69.195312 24.40625 68.042969 24.179688 66.882812 24.007812 C 65.722656 23.835938 64.554688 23.71875 63.382812 23.652344 C 62.210938 23.589844 61.039062 23.582031 59.867188 23.625 C 58.695312 23.671875 57.527344 23.769531 56.363281 23.921875 C 55.199219 24.078125 54.046875 24.285156 52.902344 24.546875 C 51.761719 24.808594 50.628906 25.121094 49.515625 25.484375 C 48.402344 25.851562 47.304688 26.269531 46.230469 26.738281 C 45.15625 27.203125 44.105469 27.722656 43.078125 28.289062 C 42.050781 28.851562 41.050781 29.464844 40.082031 30.125 C 39.113281 30.78125 38.175781 31.484375 37.269531 32.230469 C 36.367188 32.976562 35.5 33.761719 34.667969 34.589844 Z M 6.257812 62.917969 C 6.136719 59.164062 6.394531 55.4375 7.039062 51.738281 C 7.683594 48.039062 8.699219 44.441406 10.085938 40.953125 C 11.472656 37.460938 13.199219 34.144531 15.265625 31.007812 C 17.335938 27.871094 19.703125 24.976562 22.367188 22.324219 C 43.15625 1.59375 76.566406 0.925781 98.164062 20.332031 L 94.058594 24.425781 C 92.359375 22.917969 90.5625 21.535156 88.667969 20.277344 C 86.773438 19.019531 84.804688 17.894531 82.753906 16.910156 C 80.707031 15.921875 78.597656 15.082031 76.433594 14.382812 C 74.265625 13.6875 72.0625 13.144531 69.824219 12.753906 C 67.582031 12.363281 65.324219 12.125 63.050781 12.046875 C 60.777344 11.964844 58.507812 12.042969 56.246094 12.277344 C 53.980469 12.511719 51.746094 12.898438 49.535156 13.441406 C 47.324219 13.980469 45.164062 14.675781 43.050781 15.515625 C 40.9375 16.355469 38.890625 17.335938 36.914062 18.460938 C 34.9375 19.582031 33.046875 20.835938 31.246094 22.222656 C 29.441406 23.605469 27.742188 25.105469 26.148438 26.726562 C 24.554688 28.34375 23.078125 30.066406 21.722656 31.886719 C 20.371094 33.710938 19.144531 35.617188 18.054688 37.605469 C 16.964844 39.597656 16.015625 41.65625 15.210938 43.777344 C 14.40625 45.898438 13.753906 48.066406 13.25 50.277344 C 12.746094 52.492188 12.394531 54.726562 12.203125 56.988281 Z M 18.085938 67.457031 C 17.714844 64.878906 17.582031 62.289062 17.679688 59.6875 L 29.507812 47.890625 L 38.75 38.675781 C 39.488281 37.9375 40.261719 37.242188 41.070312 36.582031 C 41.878906 35.921875 42.714844 35.304688 43.585938 34.726562 C 44.453125 34.148438 45.347656 33.613281 46.269531 33.125 C 47.191406 32.632812 48.132812 32.1875 49.097656 31.792969 C 50.0625 31.394531 51.046875 31.042969 52.046875 30.742188 C 53.046875 30.441406 54.058594 30.1875 55.082031 29.984375 C 56.105469 29.78125 57.136719 29.628906 58.175781 29.527344 C 59.214844 29.425781 60.257812 29.375 61.300781 29.375 C 62.34375 29.375 63.386719 29.425781 64.425781 29.527344 C 65.464844 29.628906 66.496094 29.78125 67.519531 29.984375 C 68.546875 30.1875 69.558594 30.441406 70.554688 30.742188 C 71.554688 31.042969 72.539062 31.394531 73.503906 31.792969 C 74.46875 32.1875 75.410156 32.632812 76.332031 33.125 C 77.253906 33.613281 78.148438 34.148438 79.015625 34.726562 C 79.886719 35.304688 80.722656 35.921875 81.53125 36.582031 C 82.339844 37.242188 83.113281 37.9375 83.851562 38.675781 L 85.90625 40.722656 L 89.941406 36.726562 L 93.902344 32.777344 C 95.191406 34.242188 96.375 35.785156 97.449219 37.410156 L 85.054688 49.777344 L 83.097656 46.8125 C 82.132812 45.351562 81.027344 44 79.785156 42.765625 C 79.179688 42.164062 78.546875 41.59375 77.886719 41.050781 C 77.226562 40.511719 76.539062 40.007812 75.828125 39.535156 C 75.117188 39.0625 74.386719 38.625 73.632812 38.222656 C 72.878906 37.824219 72.105469 37.460938 71.316406 37.132812 C 70.527344 36.808594 69.722656 36.523438 68.90625 36.273438 C 68.089844 36.027344 67.261719 35.820312 66.421875 35.65625 C 65.585938 35.488281 64.742188 35.367188 63.890625 35.28125 C 63.039062 35.199219 62.1875 35.15625 61.332031 35.15625 C 60.480469 35.15625 59.628906 35.199219 58.777344 35.28125 C 57.925781 35.367188 57.082031 35.488281 56.246094 35.65625 C 55.40625 35.820312 54.578125 36.027344 53.761719 36.273438 C 52.945312 36.523438 52.140625 36.808594 51.351562 37.132812 C 50.5625 37.460938 49.789062 37.824219 49.035156 38.222656 C 48.28125 38.625 47.550781 39.0625 46.839844 39.535156 C 46.128906 40.007812 45.441406 40.511719 44.78125 41.050781 C 44.121094 41.59375 43.488281 42.164062 42.882812 42.765625 Z M 18.085938 67.457031 " fill-opacity="1" fill-rule="nonzero"/></g><g clip-path="url(#aa0adadb9d)"><path fill="#1250f3" d="M 121.035156 49.320312 L 120.585938 47.035156 L 115.625 51.980469 L 110.988281 56.613281 L 110.605469 56.992188 C 110.414062 54.605469 110.046875 52.25 109.503906 49.917969 C 109.011719 47.777344 108.375 45.683594 107.59375 43.632812 L 103.015625 48.195312 L 75.652344 75.480469 C 75.183594 75.949219 74.691406 76.394531 74.175781 76.8125 C 73.664062 77.234375 73.128906 77.628906 72.574219 77.996094 C 72.023438 78.363281 71.453125 78.703125 70.867188 79.015625 C 70.28125 79.328125 69.679688 79.609375 69.066406 79.863281 C 68.453125 80.113281 67.828125 80.335938 67.191406 80.53125 C 66.554688 80.722656 65.914062 80.882812 65.261719 81.011719 C 64.609375 81.140625 63.953125 81.238281 63.292969 81.300781 C 62.628906 81.367188 61.96875 81.398438 61.304688 81.398438 C 60.636719 81.398438 59.976562 81.367188 59.316406 81.300781 C 58.652344 81.238281 57.996094 81.140625 57.34375 81.011719 C 56.695312 80.882812 56.050781 80.722656 55.414062 80.53125 C 54.777344 80.335938 54.152344 80.113281 53.539062 79.863281 C 52.925781 79.609375 52.324219 79.328125 51.738281 79.015625 C 51.152344 78.703125 50.582031 78.363281 50.03125 77.996094 C 49.476562 77.628906 48.945312 77.234375 48.429688 76.8125 C 47.914062 76.394531 47.421875 75.949219 46.953125 75.480469 C 45.988281 74.527344 45.136719 73.484375 44.390625 72.355469 L 38.535156 63.433594 L 22.230469 79.695312 L 17.742188 84.171875 C 18.675781 85.921875 19.710938 87.609375 20.855469 89.226562 C 21.96875 90.820312 23.175781 92.34375 24.472656 93.792969 L 24.414062 93.851562 L 20.371094 97.882812 L 16.265625 101.996094 C 16.917969 102.710938 17.582031 103.410156 18.265625 104.09375 C 18.945312 104.773438 19.648438 105.4375 20.363281 106.085938 C 44.230469 127.746094 81.316406 127.078125 104.367188 104.09375 C 105.992188 102.476562 107.519531 100.773438 108.949219 98.984375 C 110.378906 97.195312 111.703125 95.332031 112.921875 93.390625 C 114.140625 91.453125 115.246094 89.453125 116.238281 87.386719 C 117.230469 85.324219 118.101562 83.210938 118.855469 81.050781 C 119.605469 78.890625 120.234375 76.691406 120.734375 74.460938 C 121.238281 72.226562 121.613281 69.972656 121.859375 67.699219 C 122.105469 65.421875 122.222656 63.140625 122.210938 60.855469 C 122.199219 58.566406 122.054688 56.285156 121.785156 54.015625 C 121.59375 52.449219 121.347656 50.878906 121.035156 49.320312 Z M 36.792969 89.703125 C 37.683594 90.464844 38.609375 91.179688 39.570312 91.855469 C 40.527344 92.527344 41.519531 93.15625 42.535156 93.738281 C 43.554688 94.320312 44.597656 94.855469 45.664062 95.339844 C 46.730469 95.824219 47.820312 96.261719 48.929688 96.644531 C 50.039062 97.027344 51.160156 97.359375 52.300781 97.640625 C 53.441406 97.917969 54.589844 98.144531 55.75 98.316406 C 56.914062 98.488281 58.078125 98.609375 59.25 98.671875 C 60.421875 98.734375 61.59375 98.746094 62.765625 98.699219 C 63.9375 98.65625 65.105469 98.554688 66.269531 98.402344 C 67.433594 98.246094 68.585938 98.039062 69.730469 97.78125 C 70.875 97.519531 72.003906 97.203125 73.121094 96.839844 C 74.234375 96.472656 75.328125 96.054688 76.40625 95.589844 C 77.480469 95.121094 78.53125 94.601562 79.558594 94.039062 C 80.585938 93.472656 81.585938 92.859375 82.554688 92.203125 C 83.523438 91.542969 84.460938 90.839844 85.367188 90.09375 C 86.269531 89.347656 87.136719 88.5625 87.96875 87.738281 L 103.316406 72.429688 C 103.078125 73.316406 102.8125 74.191406 102.519531 75.058594 C 102.222656 75.925781 101.902344 76.78125 101.550781 77.628906 C 101.203125 78.476562 100.828125 79.3125 100.425781 80.136719 C 100.023438 80.957031 99.597656 81.769531 99.144531 82.5625 C 98.6875 83.359375 98.210938 84.140625 97.707031 84.90625 C 97.203125 85.671875 96.675781 86.421875 96.128906 87.15625 C 95.578125 87.886719 95.003906 88.601562 94.40625 89.300781 C 93.8125 89.996094 93.191406 90.671875 92.554688 91.332031 C 91.914062 91.988281 91.253906 92.625 90.574219 93.242188 C 89.894531 93.855469 89.199219 94.449219 88.480469 95.023438 C 87.761719 95.59375 87.027344 96.140625 86.277344 96.667969 C 85.523438 97.191406 84.757812 97.695312 83.972656 98.171875 C 83.1875 98.648438 82.390625 99.101562 81.578125 99.527344 C 80.765625 99.953125 79.941406 100.351562 79.101562 100.726562 C 78.261719 101.101562 77.414062 101.449219 76.554688 101.769531 C 75.695312 102.089844 74.824219 102.382812 73.945312 102.648438 C 73.066406 102.914062 72.179688 103.152344 71.285156 103.363281 C 70.394531 103.574219 69.492188 103.753906 68.589844 103.90625 C 67.683594 104.058594 66.773438 104.183594 65.859375 104.28125 C 64.945312 104.375 64.03125 104.441406 63.113281 104.480469 C 62.195312 104.519531 61.277344 104.527344 60.359375 104.507812 C 59.441406 104.484375 58.527344 104.4375 57.609375 104.359375 C 56.695312 104.28125 55.785156 104.171875 54.875 104.039062 C 53.96875 103.902344 53.066406 103.738281 52.167969 103.546875 C 51.269531 103.351562 50.378906 103.132812 49.496094 102.882812 C 48.613281 102.632812 47.738281 102.355469 46.871094 102.054688 C 46.003906 101.75 45.148438 101.417969 44.304688 101.058594 C 43.457031 100.703125 42.625 100.316406 41.804688 99.90625 C 40.984375 99.496094 40.175781 99.058594 39.382812 98.597656 C 38.589844 98.136719 37.8125 97.648438 37.050781 97.136719 C 36.289062 96.625 35.542969 96.09375 34.816406 95.535156 C 34.089844 94.976562 33.378906 94.394531 32.6875 93.792969 Z M 25.199219 84.910156 L 37.597656 72.550781 L 39.554688 75.511719 C 40.519531 76.976562 41.625 78.324219 42.867188 79.5625 C 43.472656 80.164062 44.105469 80.734375 44.765625 81.273438 C 45.425781 81.8125 46.113281 82.320312 46.824219 82.789062 C 47.535156 83.261719 48.265625 83.699219 49.019531 84.101562 C 49.773438 84.503906 50.546875 84.867188 51.335938 85.191406 C 52.125 85.515625 52.929688 85.800781 53.746094 86.050781 C 54.5625 86.296875 55.390625 86.503906 56.230469 86.667969 C 57.066406 86.835938 57.910156 86.960938 58.761719 87.042969 C 59.613281 87.125 60.464844 87.167969 61.316406 87.167969 C 62.171875 87.167969 63.023438 87.125 63.875 87.042969 C 64.726562 86.960938 65.570312 86.835938 66.40625 86.667969 C 67.246094 86.503906 68.074219 86.296875 68.890625 86.050781 C 69.707031 85.800781 70.511719 85.515625 71.300781 85.191406 C 72.089844 84.867188 72.863281 84.503906 73.617188 84.101562 C 74.371094 83.699219 75.101562 83.261719 75.8125 82.789062 C 76.523438 82.320312 77.210938 81.8125 77.871094 81.273438 C 78.53125 80.734375 79.164062 80.164062 79.769531 79.5625 L 104.53125 54.867188 C 104.902344 57.445312 105.039062 60.035156 104.941406 62.636719 L 93.113281 74.433594 L 83.867188 83.648438 C 83.128906 84.382812 82.355469 85.082031 81.546875 85.738281 C 80.738281 86.398438 79.902344 87.019531 79.03125 87.597656 C 78.164062 88.175781 77.269531 88.710938 76.347656 89.199219 C 75.425781 89.691406 74.484375 90.132812 73.519531 90.53125 C 72.554688 90.929688 71.570312 91.28125 70.570312 91.582031 C 69.574219 91.882812 68.5625 92.136719 67.535156 92.339844 C 66.511719 92.542969 65.480469 92.695312 64.441406 92.796875 C 63.402344 92.898438 62.359375 92.949219 61.316406 92.949219 C 60.273438 92.949219 59.230469 92.898438 58.191406 92.796875 C 57.152344 92.695312 56.121094 92.542969 55.097656 92.339844 C 54.070312 92.136719 53.058594 91.882812 52.0625 91.582031 C 51.0625 91.28125 50.078125 90.929688 49.113281 90.53125 C 48.148438 90.132812 47.207031 89.691406 46.285156 89.199219 C 45.363281 88.710938 44.46875 88.175781 43.601562 87.597656 C 42.730469 87.019531 41.894531 86.398438 41.085938 85.738281 C 40.277344 85.082031 39.503906 84.382812 38.765625 83.648438 L 36.714844 81.617188 L 28.75 89.546875 C 27.457031 88.082031 26.273438 86.539062 25.199219 84.910156 Z M 100.269531 100.003906 C 79.480469 120.730469 46.066406 121.394531 24.460938 101.992188 L 28.570312 97.894531 C 30.273438 99.402344 32.070312 100.785156 33.960938 102.042969 C 35.855469 103.304688 37.824219 104.425781 39.875 105.414062 C 41.921875 106.402344 44.03125 107.242188 46.195312 107.9375 C 48.363281 108.632812 50.566406 109.179688 52.808594 109.570312 C 55.046875 109.960938 57.304688 110.195312 59.578125 110.277344 C 61.855469 110.355469 64.121094 110.28125 66.386719 110.046875 C 68.648438 109.8125 70.886719 109.425781 73.097656 108.882812 C 75.304688 108.34375 77.46875 107.652344 79.582031 106.808594 C 81.695312 105.96875 83.738281 104.988281 85.714844 103.863281 C 87.695312 102.742188 89.585938 101.488281 91.386719 100.105469 C 93.191406 98.71875 94.890625 97.21875 96.484375 95.601562 C 98.078125 93.980469 99.554688 92.261719 100.910156 90.4375 C 102.265625 88.617188 103.488281 86.710938 104.578125 84.71875 C 105.667969 82.726562 106.617188 80.671875 107.421875 78.546875 C 108.226562 76.425781 108.882812 74.257812 109.386719 72.046875 C 109.890625 69.832031 110.242188 67.597656 110.433594 65.335938 L 116.378906 59.410156 C 116.5 63.160156 116.242188 66.886719 115.597656 70.585938 C 114.953125 74.285156 113.9375 77.882812 112.550781 81.375 C 111.164062 84.863281 109.4375 88.179688 107.371094 91.316406 C 105.300781 94.453125 102.933594 97.347656 100.269531 100.003906 Z M 100.269531 100.003906 " fill-opacity="1" fill-rule="nonzero"/></g></svg>